<svg xmlns="http://www.w3.org/2000/svg" width="104" height="30" fill="none"><path fill="url(#a)" d="M2.988 23H.744L6.552 7.094H8.95L14.78 23h-2.265l-1.43-3.96H4.396L2.988 23zm4.488-12.474-2.42 6.644h5.39l-2.442-6.644a6.154 6.154 0 0 0-.154-.484 2.385 2.385 0 0 1-.11-.44l-.11.44a6.154 6.154 0 0 1-.154.484zm8.192 6.82c0-1.012.205-1.921.616-2.728a4.833 4.833 0 0 1 1.76-1.958c.762-.484 1.664-.726 2.706-.726.968 0 1.796.235 2.485.704.69.455 1.181 1.093 1.474 1.914l-.264.286.22-2.596h1.849V22.56c0 1.13-.22 2.105-.66 2.926a4.667 4.667 0 0 1-1.87 1.936c-.807.455-1.76.682-2.86.682-1.467 0-2.67-.389-3.608-1.166-.94-.777-1.511-1.848-1.716-3.212h2.067c.133.792.485 1.408 1.056 1.848.573.44 1.306.66 2.2.66 1.012 0 1.82-.308 2.42-.924.617-.601.925-1.415.925-2.442v-3.036l.264.286a3.622 3.622 0 0 1-1.518 1.914c-.734.455-1.584.682-2.552.682-1.027 0-1.915-.235-2.662-.704a4.923 4.923 0 0 1-1.738-1.936c-.396-.807-.595-1.716-.595-2.728zm2.067-.044c0 .675.133 1.283.396 1.826.28.543.66.975 1.145 1.298.498.323 1.078.484 1.738.484.704 0 1.305-.154 1.803-.462.5-.308.88-.733 1.145-1.276.278-.543.418-1.166.418-1.87 0-.704-.133-1.32-.396-1.848a3.046 3.046 0 0 0-1.145-1.254c-.498-.308-1.1-.462-1.803-.462-.69 0-1.284.161-1.783.484a3.22 3.22 0 0 0-1.122 1.298c-.264.528-.396 1.122-.396 1.782zm16.405 5.962c-1.041 0-1.965-.235-2.772-.704a5.116 5.116 0 0 1-1.892-1.98c-.455-.85-.682-1.833-.682-2.948 0-1.13.22-2.12.66-2.97a5.182 5.182 0 0 1 1.848-2.002c.792-.484 1.709-.726 2.75-.726 1.027 0 1.914.22 2.662.66a4.456 4.456 0 0 1 1.76 1.848c.425.792.638 1.723.638 2.794v.77l-9.218.022.044-1.386h7.106c0-.895-.271-1.613-.814-2.156-.543-.543-1.269-.814-2.178-.814-.69 0-1.283.154-1.782.462-.484.293-.858.733-1.122 1.32-.25.572-.374 1.261-.374 2.068 0 1.29.293 2.288.88 2.992.587.69 1.43 1.034 2.53 1.034.807 0 1.467-.161 1.98-.484.513-.323.858-.792 1.034-1.408h1.936c-.264 1.144-.829 2.031-1.694 2.662-.865.63-1.965.946-3.3.946zM43.49 23h-2.068V12.242h1.87l.22 1.65a3.499 3.499 0 0 1 1.452-1.43 4.34 4.34 0 0 1 2.112-.528c1.408 0 2.45.403 3.124 1.21.674.807 1.012 1.9 1.012 3.278V23h-2.068v-6.116c0-1.085-.235-1.863-.704-2.332-.47-.484-1.1-.726-1.892-.726-.968 0-1.724.315-2.266.946-.528.63-.792 1.474-.792 2.53V23zm9.882-5.368c0-1.13.22-2.12.66-2.97a5.127 5.127 0 0 1 1.87-2.002c.792-.484 1.709-.726 2.75-.726 1.35 0 2.471.36 3.366 1.078.895.719 1.43 1.672 1.606 2.86h-2.068c-.176-.69-.52-1.21-1.034-1.562-.513-.352-1.115-.528-1.804-.528-.645 0-1.217.161-1.716.484-.499.308-.887.748-1.166 1.32-.279.572-.418 1.247-.418 2.024 0 .777.132 1.452.396 2.024a3.19 3.19 0 0 0 1.122 1.32c.484.308 1.049.462 1.694.462.733 0 1.364-.183 1.892-.55.528-.367.88-.865 1.056-1.496h2.068a4.394 4.394 0 0 1-.902 2.046 4.823 4.823 0 0 1-1.76 1.364c-.704.323-1.489.484-2.354.484-1.056 0-1.98-.235-2.772-.704a4.902 4.902 0 0 1-1.826-1.958c-.44-.85-.66-1.84-.66-2.97zm13.1-5.39 3.783 10.472-1.276 1.76-4.686-12.232h2.178zm-1.893 15.576v-1.694h1.386c.337 0 .645-.037.924-.11.279-.059.535-.198.77-.418.235-.205.433-.535.594-.99l4.532-12.364h2.134L69.837 25.42c-.367.924-.829 1.591-1.386 2.002-.557.41-1.246.616-2.068.616-.337 0-.652-.022-.946-.066a5.52 5.52 0 0 1-.858-.154zm9.263.066.352-1.87c.206.059.382.095.528.11.147.03.3.044.462.044.499 0 .85-.147 1.056-.44.22-.293.33-.74.33-1.342V12.242h2.068v12.342c0 1.07-.286 1.921-.858 2.552-.572.63-1.378.946-2.42.946-.264 0-.506-.015-.726-.044-.22-.03-.484-.08-.792-.154zM77.604 9.69c-.381 0-.704-.132-.968-.396a1.365 1.365 0 0 1-.396-.968c0-.381.132-.704.396-.968s.587-.396.968-.396c.367 0 .682.132.946.396.279.264.418.587.418.968 0 .367-.14.69-.418.968-.264.264-.58.396-.946.396zm3.332 7.92c0-1.1.242-2.075.726-2.926a5.296 5.296 0 0 1 1.98-2.002c.851-.484 1.82-.726 2.904-.726 1.086 0 2.046.242 2.882.726a5.296 5.296 0 0 1 1.98 2.002c.484.85.727 1.826.727 2.926s-.243 2.075-.727 2.926a5.296 5.296 0 0 1-1.98 2.002c-.835.484-1.796.726-2.882.726-1.085 0-2.053-.242-2.904-.726a5.296 5.296 0 0 1-1.98-2.002c-.484-.85-.726-1.826-.726-2.926zm2.09 0c0 .748.147 1.408.44 1.98a3.46 3.46 0 0 0 1.255 1.342c.528.323 1.136.484 1.825.484.69 0 1.298-.161 1.826-.484.528-.323.94-.77 1.233-1.342.307-.572.462-1.232.462-1.98 0-.763-.154-1.423-.462-1.98a3.303 3.303 0 0 0-1.233-1.342c-.528-.323-1.136-.484-1.826-.484-.689 0-1.297.161-1.826.484a3.46 3.46 0 0 0-1.254 1.342c-.293.557-.44 1.217-.44 1.98zm11.89-5.368 3.785 10.472-1.276 1.76-4.686-12.232h2.177zm-1.891 15.576v-1.694h1.385c.338 0 .646-.037.925-.11.278-.059.535-.198.77-.418.234-.205.432-.535.593-.99l4.533-12.364h2.134L98.283 25.42c-.367.924-.83 1.591-1.386 2.002-.558.41-1.247.616-2.069.616-.337 0-.652-.022-.946-.066a5.541 5.541 0 0 1-.858-.154z"/><path fill="#D9D9D9" d="M77.104 3.22a.417.417 0 0 1 .792 0l.633 1.947a.417.417 0 0 0 .396.288h2.048c.403 0 .571.516.245.754L79.56 7.412a.417.417 0 0 0-.151.466l.633 1.947a.417.417 0 0 1-.642.466l-1.656-1.203a.417.417 0 0 0-.49 0L75.6 10.29a.417.417 0 0 1-.642-.466l.633-1.947a.417.417 0 0 0-.151-.466L73.782 6.21a.417.417 0 0 1 .245-.754h2.048c.18 0 .34-.116.396-.288l.633-1.947z"/><defs><linearGradient id="a" x1="104" x2="0" y1="15" y2="15" gradientUnits="userSpaceOnUse"><stop stop-color="#FFB168"/><stop offset="1" stop-color="#E36D00"/></linearGradient></defs></svg>